<?xml version="1.0" standalone="no"?>
<!DOCTYPE svg PUBLIC "-//W3C//DTD SVG 20010904//EN"
 "http://www.w3.org/TR/2001/REC-SVG-20010904/DTD/svg10.dtd">
<svg version="1.0" xmlns="http://www.w3.org/2000/svg"
 width="512.000000pt" height="512.000000pt" viewBox="0 0 512.000000 512.000000"
 preserveAspectRatio="xMidYMid meet">
<metadata>
Created by potrace 1.11, written by Peter Selinger 2001-2013
</metadata>
<g transform="translate(0.000000,512.000000) scale(0.100000,-0.100000)"
fill="#000000" stroke="none">
<path d="M377 5105 c-173 -47 -316 -193 -362 -366 -22 -81 -22 -4277 0 -4358
46 -176 190 -320 366 -366 81 -22 4277 -22 4358 0 176 46 320 190 366 366 22
81 22 4277 0 4358 -46 176 -190 320 -366 366 -77 21 -4287 21 -4362 0z m1163
-1685 c329 -94 548 -353 601 -710 16 -111 6 -310 -20 -415 -62 -240 -223 -437
-446 -545 -123 -60 -216 -80 -369 -80 -244 0 -408 61 -572 213 -88 82 -131
139 -183 243 -69 139 -85 221 -86 434 0 148 4 198 19 250 66 238 195 414 386
526 76 45 191 87 284 104 86 15 301 4 386 -20z m1360 -30 c0 -17 -7 -20 -40
-20 -22 0 -56 -6 -75 -14 -64 -27 -70 -73 -25 -198 86 -242 368 -959 376 -957
5 1 70 164 145 362 l136 361 -72 178 c-40 99 -83 191 -96 205 -32 34 -95 63
-141 63 -31 0 -38 4 -38 20 0 20 7 20 340 20 326 0 340 -1 340 -19 0 -16 -9
-19 -60 -23 -107 -8 -147 -62 -116 -157 25 -77 387 -1015 395 -1024 7 -7 339
884 360 968 14 52 14 131 0 157 -14 26 -85 58 -131 58 -31 0 -38 4 -38 20 0
19 7 20 255 20 239 0 255 -1 255 -18 0 -13 -13 -22 -48 -31 -61 -15 -114 -58
-140 -113 -30 -65 -401 -1103 -483 -1355 -57 -173 -77 -223 -90 -223 -12 0
-27 29 -55 108 -35 100 -118 318 -301 794 -42 109 -79 195 -82 192 -3 -3 -94
-249 -202 -547 -159 -440 -200 -543 -215 -545 -16 -2 -30 30 -98 230 -80 238
-332 930 -413 1138 -94 240 -146 312 -237 327 -26 4 -36 11 -36 24 0 18 14 19
315 19 308 0 315 0 315 -20z"/>
<path d="M1176 3349 c-120 -28 -273 -158 -335 -284 -126 -257 -133 -724 -14
-988 32 -72 106 -168 166 -215 202 -162 475 -145 665 41 69 68 106 126 142
224 74 204 81 602 14 823 -58 195 -208 350 -379 395 -64 16 -197 18 -259 4z"/>
</g>
</svg>
